<svg width="22" height="24" viewBox="0 0 22 24" fill="none" xmlns="http://www.w3.org/2000/svg">
<path d="M22 12C22 18.4219 17.0766 23.625 11 23.625C9.86452 23.625 8.77339 23.4422 7.74435 23.1047C8.19234 22.3312 8.8621 21.0656 9.11048 20.0578C9.24355 19.5141 9.79355 17.2922 9.79355 17.2922C10.1528 18.0141 11.1996 18.6281 12.3129 18.6281C15.6306 18.6281 18.0214 15.4031 18.0214 11.3953C18.0214 7.55625 15.054 4.68281 11.2395 4.68281C6.49355 4.68281 3.96976 8.04844 3.96976 11.7188C3.96976 13.425 4.83024 15.5484 6.20081 16.2234C6.40927 16.3266 6.52016 16.2797 6.56895 16.0687C6.60444 15.9094 6.79073 15.1172 6.875 14.7516C6.90161 14.6344 6.88831 14.5312 6.7996 14.4188C6.35161 13.8328 5.9879 12.7641 5.9879 11.7656C5.9879 9.20156 7.82419 6.72187 10.9556 6.72187C13.6569 6.72187 15.5508 8.66719 15.5508 11.4516C15.5508 14.5969 14.0472 16.7766 12.0911 16.7766C11.0133 16.7766 10.2016 15.8344 10.4633 14.6766C10.7738 13.2938 11.3726 11.8031 11.3726 10.8047C11.3726 9.91406 10.9202 9.16875 9.97984 9.16875C8.8754 9.16875 7.98831 10.3734 7.98831 11.9906C7.98831 13.0219 8.31653 13.7156 8.31653 13.7156C8.31653 13.7156 7.22984 18.5812 7.03024 19.4906C6.80847 20.4937 6.89718 21.9094 6.99032 22.8281C2.90081 21.1359 0 16.9266 0 12C0 5.57812 4.92339 0.375 11 0.375C17.0766 0.375 22 5.57812 22 12Z" fill="black" fill-opacity="0.6"/>
</svg>
