<svg width="22" height="22" viewBox="0 0 22 22" fill="none" xmlns="http://www.w3.org/2000/svg">
<path d="M11.0049 5.60936C7.88169 5.60936 5.3625 8.01405 5.3625 10.9953C5.3625 13.9765 7.88169 16.3812 11.0049 16.3812C14.1281 16.3812 16.6473 13.9765 16.6473 10.9953C16.6473 8.01405 14.1281 5.60936 11.0049 5.60936ZM11.0049 14.4969C8.9866 14.4969 7.3366 12.9265 7.3366 10.9953C7.3366 9.06405 8.98169 7.49374 11.0049 7.49374C13.0281 7.49374 14.6732 9.06405 14.6732 10.9953C14.6732 12.9265 13.0232 14.4969 11.0049 14.4969ZM18.1942 5.38905C18.1942 6.08749 17.6049 6.6453 16.8781 6.6453C16.1464 6.6453 15.562 6.0828 15.562 5.38905C15.562 4.6953 16.1513 4.1328 16.8781 4.1328C17.6049 4.1328 18.1942 4.6953 18.1942 5.38905ZM21.9312 6.66405C21.8477 4.98124 21.4451 3.49061 20.1535 2.26249C18.8669 1.03436 17.3053 0.649986 15.5424 0.565611C13.7254 0.467174 8.27946 0.467174 6.4625 0.565611C4.70446 0.645299 3.14286 1.02967 1.85134 2.2578C0.559826 3.48592 0.162059 4.97655 0.0736663 6.65936C-0.0294586 8.39374 -0.0294586 13.5922 0.0736663 15.3265C0.157148 17.0094 0.559826 18.5 1.85134 19.7281C3.14286 20.9562 4.69955 21.3406 6.4625 21.425C8.27946 21.5234 13.7254 21.5234 15.5424 21.425C17.3053 21.3453 18.8669 20.9609 20.1535 19.7281C21.4402 18.5 21.8428 17.0094 21.9312 15.3265C22.0344 13.5922 22.0344 8.39842 21.9312 6.66405ZM19.5839 17.1875C19.2009 18.1062 18.4594 18.814 17.4919 19.1844C16.0433 19.7328 12.6058 19.6062 11.0049 19.6062C9.40401 19.6062 5.9616 19.7281 4.51786 19.1844C3.55536 18.8187 2.81384 18.1109 2.4259 17.1875C1.85134 15.8047 1.98393 12.5234 1.98393 10.9953C1.98393 9.46717 1.85625 6.18124 2.4259 4.80311C2.80893 3.88436 3.55045 3.17655 4.51786 2.80624C5.96652 2.2578 9.40401 2.38436 11.0049 2.38436C12.6058 2.38436 16.0482 2.26249 17.4919 2.80624C18.4544 3.17186 19.196 3.87967 19.5839 4.80311C20.1585 6.18592 20.0259 9.46717 20.0259 10.9953C20.0259 12.5234 20.1585 15.8094 19.5839 17.1875Z" fill="black" fill-opacity="0.6"/>
</svg>
