<svg width="22" height="20" viewBox="0 0 22 20" fill="none" xmlns="http://www.w3.org/2000/svg">
<path d="M19.7386 5.11169C19.7525 5.32488 19.7525 5.53811 19.7525 5.7513C19.7525 12.2538 15.2157 19.7462 6.92386 19.7462C4.36928 19.7462 1.9962 18.9391 0 17.5381C0.362957 17.5838 0.711906 17.599 1.08883 17.599C3.19666 17.599 5.13704 16.8224 6.68654 15.4975C4.7043 15.4518 3.04313 14.0356 2.47079 12.0863C2.75 12.132 3.02917 12.1624 3.32234 12.1624C3.72715 12.1624 4.132 12.1015 4.50888 11.995C2.4429 11.5381 0.893363 9.55839 0.893363 7.16753V7.10664C1.49359 7.47213 2.19162 7.70055 2.93141 7.73097C1.71695 6.8477 0.921293 5.34011 0.921293 3.63452C0.921293 2.72083 1.1446 1.88327 1.53549 1.1523C3.75504 4.13706 7.09135 6.08627 10.8324 6.2995C10.7626 5.93402 10.7207 5.55335 10.7207 5.17263C10.7207 2.46194 12.7309 0.253845 15.2296 0.253845C16.5278 0.253845 17.7004 0.847752 18.524 1.80714C19.543 1.59395 20.5202 1.18277 21.3857 0.61933C21.0506 1.76149 20.3387 2.72088 19.4035 3.32997C20.3109 3.22342 21.1903 2.94925 21.9999 2.56858C21.3858 3.54316 20.618 4.41114 19.7386 5.11169Z" fill="black" fill-opacity="0.6"/>
</svg>
